<?xml version="1.0" standalone="no"?>
<!DOCTYPE svg PUBLIC "-//W3C//DTD SVG 20010904//EN"
 "http://www.w3.org/TR/2001/REC-SVG-20010904/DTD/svg10.dtd">
<svg version="1.0" xmlns="http://www.w3.org/2000/svg"
 width="784.000000pt" height="784.000000pt" viewBox="0 0 784.000000 784.000000"
 preserveAspectRatio="xMidYMid meet">
<metadata>
Created by potrace 1.11, written by Peter Selinger 2001-2013
</metadata>
<g transform="translate(0.000000,784.000000) scale(0.100000,-0.100000)"
fill="#000000" stroke="none">
<path d="M223 7094 c-4 -1 -20 -5 -36 -8 -37 -9 -105 -71 -123 -115 -13 -32
-15 -389 -15 -3054 l0 -3019 25 -52 c21 -43 36 -58 78 -82 l53 -28 3705 -1
3706 0 49 26 c35 18 59 39 80 74 l30 48 0 2151 -1 2151 -21 40 c-37 71 -98
108 -178 108 -85 -1 -161 -55 -187 -136 -11 -35 -14 -385 -13 -2049 0 -1332
-3 -2008 -10 -2009 -25 -3 -6892 -4 -6905 -1 -13 3 -15 316 -13 2760 1 1516 2
2766 3 2777 0 20 1 20 2313 20 1271 -1 2317 1 2322 4 6 3 16 6 22 7 29 5 86
49 109 86 59 93 29 213 -70 276 l-41 26 -2437 1 c-1340 0 -2440 0 -2445 -1z"/>
<path d="M7175 7063 c-60 -13 -132 -28 -160 -34 -27 -6 -59 -12 -70 -14 -11
-2 -31 -6 -45 -9 -37 -9 -92 -19 -115 -22 -11 -1 -20 -3 -20 -4 0 -2 -15 -5
-65 -15 -19 -4 -39 -8 -45 -9 -9 -3 -69 -15 -105 -21 -8 -2 -35 -8 -60 -14
-25 -5 -58 -12 -75 -15 -51 -10 -76 -15 -93 -20 -9 -3 -34 -8 -56 -12 -44 -7
-54 -9 -116 -23 -25 -5 -61 -13 -80 -16 -40 -8 -63 -13 -70 -15 -3 -1 -9 -3
-15 -4 -84 -14 -155 -29 -155 -33 0 -5 102 -103 220 -211 l55 -51 -36 -38
c-20 -21 -63 -66 -95 -100 -32 -34 -103 -108 -156 -165 -53 -57 -118 -126
-145 -154 -26 -28 -106 -113 -178 -189 -71 -76 -150 -159 -175 -185 -25 -26
-97 -102 -160 -170 -63 -67 -142 -150 -175 -185 -33 -34 -112 -118 -175 -185
-63 -67 -139 -148 -168 -179 -47 -49 -116 -122 -327 -346 -31 -33 -114 -121
-185 -195 -70 -74 -142 -151 -160 -171 l-33 -35 -41 42 c-23 23 -131 135 -241
249 -110 114 -229 237 -265 274 -36 37 -162 168 -280 290 -118 123 -260 269
-315 326 -55 56 -192 198 -305 315 -351 364 -396 410 -401 410 -3 0 -6 -6 -6
-12 -1 -11 -28 -126 -47 -198 -4 -13 -22 -88 -31 -130 -14 -61 -105 -436 -110
-450 -1 -3 -5 -23 -10 -45 -4 -22 -10 -44 -13 -50 -3 -5 -7 -18 -8 -30 -1 -11
-21 -96 -44 -190 -91 -375 -140 -575 -144 -597 -11 -50 -15 -70 -21 -88 -3
-10 -8 -27 -10 -37 -2 -10 -20 -85 -40 -168 -20 -82 -39 -161 -41 -175 -3 -14
-11 -47 -19 -75 -8 -27 -16 -61 -19 -75 -2 -14 -13 -61 -25 -105 -11 -44 -23
-95 -26 -114 -3 -19 -8 -38 -11 -43 -3 -4 -7 -16 -9 -25 -2 -10 -13 -58 -24
-108 -18 -78 -26 -110 -45 -185 -3 -8 -13 -53 -24 -100 -11 -47 -52 -218 -91
-380 -40 -162 -75 -306 -77 -320 -3 -14 -11 -47 -19 -75 -8 -27 -16 -64 -20
-82 -3 -18 -9 -43 -15 -57 -5 -15 -8 -26 -5 -26 2 0 -2 -21 -10 -47 -8 -27
-16 -59 -19 -73 -3 -14 -19 -81 -36 -150 -18 -69 -32 -132 -32 -140 -1 -8 -5
-20 -10 -27 -5 -7 -5 -14 1 -18 8 -5 699 -9 952 -5 l35 0 33 138 c35 145 58
242 67 280 2 13 27 115 54 227 28 113 52 215 54 227 3 13 5 23 6 23 1 0 3 9 5
20 4 21 66 280 90 380 9 33 17 70 20 82 3 13 7 32 10 43 3 11 7 29 10 40 3 11
7 28 9 38 2 9 16 67 30 127 15 61 28 119 30 130 2 11 9 40 16 65 7 25 13 52
15 60 2 8 8 33 13 55 6 22 13 51 16 65 2 14 16 70 30 125 14 55 27 114 31 130
8 44 43 176 48 181 2 2 33 -28 69 -68 36 -40 77 -85 89 -99 13 -14 58 -63 99
-108 41 -46 89 -98 105 -115 17 -18 66 -72 110 -121 44 -48 94 -102 110 -120
17 -17 64 -69 105 -115 41 -46 90 -99 109 -119 18 -20 65 -72 105 -115 39 -44
82 -91 96 -106 70 -76 211 -231 260 -286 30 -34 62 -65 70 -68 10 -5 26 6 48
31 29 32 106 117 222 243 152 166 209 228 230 250 53 57 209 228 256 279 27
30 65 71 84 92 19 20 69 74 110 119 41 46 95 105 120 131 25 26 75 81 111 121
37 40 88 96 113 123 26 28 75 81 109 119 34 39 73 82 87 96 33 35 211 228 284
308 32 35 65 72 74 81 10 9 53 57 97 105 44 49 94 103 110 121 17 18 68 74
115 125 47 51 99 107 115 125 28 30 186 202 230 251 34 37 181 198 211 230 16
17 49 53 74 81 25 27 50 52 56 56 6 3 68 -49 140 -118 70 -69 132 -125 136
-125 4 0 8 8 9 18 1 22 7 60 15 92 4 14 8 36 9 50 1 14 5 39 8 55 4 17 9 46
12 65 4 19 22 123 41 230 20 107 37 204 38 215 2 11 6 34 9 50 6 29 10 47 22
129 4 21 9 48 11 60 2 11 7 35 9 51 3 17 10 55 15 85 6 30 12 66 15 80 12 71
26 148 30 170 8 38 14 71 21 115 3 22 8 43 11 48 7 11 -39 5 -162 -20z"/>
<path d="M6083 4312 c-29 -31 -81 -87 -115 -123 -35 -36 -115 -121 -178 -188
-63 -68 -140 -149 -170 -181 -138 -145 -245 -262 -248 -269 -1 -4 5 -37 13
-72 9 -35 18 -73 20 -84 1 -11 8 -40 15 -65 7 -25 14 -53 16 -63 2 -10 5 -26
8 -35 3 -9 7 -28 10 -42 3 -14 24 -101 46 -195 23 -93 44 -183 46 -200 3 -16
9 -41 14 -55 5 -14 11 -38 15 -55 10 -54 13 -69 34 -150 11 -44 22 -91 25
-105 4 -26 90 -388 106 -450 16 -63 31 -125 34 -145 2 -11 9 -40 16 -65 l11
-45 486 2 c267 1 488 4 491 7 3 3 -2 34 -11 68 -9 35 -37 149 -62 253 -25 105
-53 218 -61 253 -9 35 -17 68 -18 75 -1 7 -5 21 -9 32 -3 11 -8 31 -11 45 -3
14 -15 63 -26 110 -12 47 -26 105 -31 130 -6 25 -14 63 -20 85 -22 89 -28 111
-33 135 -3 14 -15 63 -27 110 -27 109 -29 119 -36 155 -3 17 -9 38 -14 48 -5
9 -8 17 -5 17 3 0 -2 23 -11 52 -8 29 -16 63 -18 77 -2 15 -8 37 -13 51 -5 14
-9 27 -9 30 0 8 -24 113 -30 130 -3 8 -7 24 -8 35 -2 11 -14 66 -29 122 -14
56 -28 112 -31 125 -12 56 -26 113 -60 253 -20 83 -41 171 -47 198 -6 26 -14
47 -17 47 -3 0 -29 -26 -58 -58z"/>
</g>
</svg>
